<svg data-v-423bf9ae="" xmlns="http://www.w3.org/2000/svg" viewBox="0 0 54.65820033142736 60" class="icon"><!----><!----><!----><!----><g data-v-423bf9ae="" id="2b74f6b9-2b6f-49e4-90fc-4a41096f6fd2" transform="matrix(0.6211159229278564,0,0,0.6211159229278564,-3.726696491241455,-1.0423120260238647)" stroke="none" fill="white"><path d="M50.8 1.8l10.3 7.1c.3.2.3.6 0 .8l-10.3 7.1c-.3.2-.8 0-.8-.4v-3.8c-20.6 0-37.4 16.8-37.4 37.4 0 12 5.8 23.3 15.5 30.3l-3.9 5.3C12.8 77.4 6 64 6 50 6 25.7 25.7 6 50 6V2.2c0-.4.5-.7.8-.4zM87.4 50c0 20.6-16.8 37.4-37.4 37.4v-3.8c0-.4-.5-.7-.8-.4l-10.3 7.1c-.3.2-.3.6 0 .8l10.3 7.1c.3.2.8 0 .8-.4V94c24.3 0 44-19.7 44-44 0-14-6.8-27.4-18.2-35.6L72 19.7c9.7 7 15.4 18.3 15.4 30.3zM61 31.4l4.3-3c.8-.5 1.8-.5 2.5.2l1.8 1.8 1.8 1.8c.7.7.8 1.8.2 2.6l-3 4.3c1 1.8 1.8 3.6 2.3 5.6l5.2.9c1 .2 1.7 1 1.7 1.9v5.2c0 1-.7 1.8-1.7 2l-5.1.7c-.5 1.9-1.3 3.8-2.3 5.6l3 4.3c.6.8.5 1.9-.2 2.6l-1.8 1.8-1.8 1.8c-.7.7-1.8.8-2.6.2l-4.3-3c-1.7 1-3.6 1.8-5.4 2.3l-.9 5.2c-.2 1-1 1.7-1.9 1.7h-5.2c-1 0-1.8-.7-2-1.7l-.8-5.2c-1.9-.5-3.8-1.2-5.6-2.3l-4.3 3.1c-.8.6-1.9.5-2.6-.2l-1.8-1.8-1.8-1.8c-.7-.7-.8-1.8-.2-2.6l3-4.2c-1.1-1.8-1.8-3.6-2.3-5.5l-5.2-.9c-1-.2-1.7-1-1.7-1.9v-5.2c0-1 .7-1.8 1.7-2l5.1-.8c.5-1.9 1.2-3.8 2.3-5.6L28.3 35c-.6-.8-.5-1.9.2-2.6l1.8-1.8 1.8-1.8c.7-.7 1.8-.8 2.6-.2l4.2 3c1.8-1.1 3.7-1.9 5.7-2.4l.9-5.2c.2-1 1-1.7 1.9-1.7h5.2c1 0 1.8.7 2 1.7l.9 5.2c1.8.4 3.7 1.1 5.5 2.2zm-.1 13.9l-4.1-4.1-9.5 9.4-4-4-4.1 4.1 4 4 4.1 4.1 4.1-4.1 9.5-9.4z"></path></g><!----></svg>