<svg data-v-fde0c5aa="" xmlns="http://www.w3.org/2000/svg" viewBox="0 0 300 300" class="iconLeft"><!----><defs data-v-fde0c5aa=""><!----></defs><rect data-v-fde0c5aa="" fill="#034A4A" x="0" y="0" width="300px" height="300px" class="logo-background-square"></rect><defs data-v-fde0c5aa=""><!----></defs><g data-v-fde0c5aa="" id="994272b0-a089-47f2-b167-8f349dcfa5d5" fill="#FFFFFF" transform="matrix(4.345520496368408,0,0,4.345520496368408,116.1632905587649,114.64919237654294)"><path d="M6.90 10.08L6.90 10.08L6.90 10.08Q7 10.53 7.09 10.86L7.09 10.86L7.09 10.86Q7.18 11.18 7.28 11.39L7.28 11.39L7.28 11.39Q7.38 11.60 7.51 11.70L7.51 11.70L7.51 11.70Q7.64 11.81 7.83 11.81L7.83 11.81L7.83 11.81Q7.94 11.81 8.04 11.78L8.04 11.78L8.04 11.78Q8.14 11.76 8.22 11.69L8.22 11.69L8.22 11.69Q8.31 11.61 8.36 11.48L8.36 11.48L8.36 11.48Q8.41 11.35 8.41 11.15L8.41 11.15L9.10 11.09L9.10 11.09Q9.10 11.80 8.71 12.21L8.71 12.21L8.71 12.21Q8.32 12.63 7.61 12.63L7.61 12.63L7.61 12.63Q7.11 12.63 6.79 12.42L6.79 12.42L6.79 12.42Q6.47 12.22 6.25 11.85L6.25 11.85L6.25 11.85Q6.03 11.48 5.87 10.96L5.87 10.96L5.87 10.96Q5.71 10.45 5.54 9.83L5.54 9.83L5.54 9.83Q5.41 9.39 5.21 9.04L5.21 9.04L5.21 9.04Q5.00 8.69 4.81 8.41L4.81 8.41L4.81 8.41Q4.61 8.33 4.33 8.30L4.33 8.30L4.33 8.30Q4.06 8.26 3.71 8.26L3.71 8.26L2.81 8.26L2.81 11.43L2.81 11.43Q2.81 11.57 2.85 11.64L2.85 11.64L2.85 11.64Q2.89 11.71 2.99 11.74L2.99 11.74L2.99 11.74Q3.09 11.77 3.26 11.78L3.26 11.78L3.26 11.78Q3.42 11.79 3.67 11.79L3.67 11.79L4.03 11.79L4.03 12.46L4.03 12.46Q3.82 12.46 3.62 12.46L3.62 12.46L3.62 12.46Q3.42 12.46 3.22 12.46L3.22 12.46L3.22 12.46Q3.01 12.46 2.77 12.46L2.77 12.46L2.77 12.46Q2.54 12.46 2.26 12.45L2.26 12.45L2.26 12.45Q1.96 12.45 1.70 12.45L1.70 12.45L1.70 12.45Q1.44 12.46 1.20 12.46L1.20 12.46L1.20 12.46Q0.97 12.46 0.75 12.46L0.75 12.46L0.75 12.46Q0.53 12.46 0.31 12.46L0.31 12.46L0.31 11.79L0.66 11.79L0.66 11.79Q1.00 11.79 1.18 11.76L1.18 11.76L1.18 11.76Q1.37 11.73 1.45 11.68L1.45 11.68L1.45 11.68Q1.54 11.62 1.55 11.54L1.55 11.54L1.55 11.54Q1.57 11.46 1.57 11.35L1.57 11.35L1.57 4.76L1.57 4.76Q1.57 4.60 1.54 4.51L1.54 4.51L1.54 4.51Q1.51 4.42 1.39 4.38L1.39 4.38L1.39 4.38Q1.26 4.34 1.02 4.33L1.02 4.33L1.02 4.33Q0.77 4.32 0.31 4.32L0.31 4.32L0.31 3.64L4.08 3.64L4.08 3.64Q4.83 3.64 5.47 3.74L5.47 3.74L5.47 3.74Q6.12 3.83 6.59 4.08L6.59 4.08L6.59 4.08Q7.06 4.33 7.33 4.77L7.33 4.77L7.33 4.77Q7.60 5.22 7.60 5.91L7.60 5.91L7.60 5.91Q7.60 6.73 7.10 7.28L7.10 7.28L7.10 7.28Q6.60 7.83 5.67 8.03L5.67 8.03L5.67 8.03Q5.87 8.18 6.05 8.36L6.05 8.36L6.05 8.36Q6.23 8.53 6.38 8.77L6.38 8.77L6.38 8.77Q6.54 9.00 6.67 9.32L6.67 9.32L6.67 9.32Q6.79 9.64 6.90 10.08ZM2.81 4.38L2.81 7.60L4.30 7.60L4.30 7.60Q4.85 7.60 5.25 7.51L5.25 7.51L5.25 7.51Q5.64 7.42 5.89 7.23L5.89 7.23L5.89 7.23Q6.13 7.04 6.25 6.73L6.25 6.73L6.25 6.73Q6.36 6.43 6.36 5.99L6.36 5.99L6.36 5.99Q6.36 5.49 6.20 5.17L6.20 5.17L6.20 5.17Q6.04 4.86 5.72 4.69L5.72 4.69L5.72 4.69Q5.40 4.51 4.94 4.45L4.94 4.45L4.94 4.45Q4.47 4.38 3.87 4.38L3.87 4.38L2.81 4.38ZM12.30 12.61L12.30 12.61L12.30 12.61Q11.65 12.61 11.26 12.41L11.26 12.41L11.26 12.41Q10.87 12.21 10.66 11.82L10.66 11.82L10.66 11.82Q10.45 11.44 10.39 10.87L10.39 10.87L10.39 10.87Q10.32 10.31 10.32 9.58L10.32 9.58L10.32 7.41L10.32 7.41Q10.32 7.24 10.29 7.14L10.29 7.14L10.29 7.14Q10.26 7.05 10.16 7.01L10.16 7.01L10.16 7.01Q10.06 6.97 9.86 6.96L9.86 6.96L9.86 6.96Q9.67 6.95 9.34 6.95L9.34 6.95L9.34 6.36L9.34 6.36Q9.65 6.36 9.91 6.36L9.91 6.36L9.91 6.36Q10.17 6.36 10.41 6.35L10.41 6.35L10.41 6.35Q10.66 6.35 10.92 6.34L10.92 6.34L10.92 6.34Q11.18 6.33 11.47 6.32L11.47 6.32L11.47 9.93L11.47 9.93Q11.47 10.36 11.51 10.73L11.51 10.73L11.51 10.73Q11.55 11.09 11.67 11.35L11.67 11.35L11.67 11.35Q11.80 11.61 12.03 11.75L12.03 11.75L12.03 11.75Q12.27 11.89 12.67 11.89L12.67 11.89L12.67 11.89Q13.04 11.89 13.35 11.81L13.35 11.81L13.35 11.81Q13.66 11.73 13.91 11.58L13.91 11.58L13.91 11.58Q14.16 11.44 14.36 11.23L14.36 11.23L14.36 11.23Q14.55 11.03 14.68 10.81L14.68 10.81L14.68 10.81Q14.69 10.55 14.69 10.31L14.69 10.31L14.69 10.31Q14.69 10.06 14.69 9.80L14.69 9.80L14.69 7.44L14.69 7.44Q14.69 7.26 14.66 7.16L14.66 7.16L14.66 7.16Q14.63 7.06 14.52 7.01L14.52 7.01L14.52 7.01Q14.42 6.97 14.22 6.96L14.22 6.96L14.22 6.96Q14.02 6.95 13.69 6.95L13.69 6.95L13.69 6.36L13.69 6.36Q14.21 6.36 14.75 6.35L14.75 6.35L14.75 6.35Q15.29 6.34 15.84 6.31L15.84 6.31L15.84 11.50L15.84 11.50Q15.84 11.63 15.87 11.70L15.87 11.70L15.87 11.70Q15.91 11.77 16.01 11.81L16.01 11.81L16.01 11.81Q16.12 11.84 16.31 11.85L16.31 11.85L16.31 11.85Q16.50 11.85 16.82 11.85L16.82 11.85L16.82 12.46L16.82 12.46Q16.20 12.46 15.70 12.47L15.70 12.47L15.70 12.47Q15.20 12.48 14.74 12.49L14.74 12.49L14.74 11.57L14.74 11.57Q14.27 12.09 13.64 12.35L13.64 12.35L13.64 12.35Q13.02 12.61 12.30 12.61ZM18.55 4.79L19.42 4.61L19.42 6.34L21.06 6.34L21.06 6.95L19.43 6.95L19.43 10.38L19.43 10.38Q19.43 10.73 19.43 11.00L19.43 11.00L19.43 11.00Q19.44 11.28 19.50 11.48L19.50 11.48L19.50 11.48Q19.56 11.68 19.69 11.78L19.69 11.78L19.69 11.78Q19.82 11.89 20.06 11.89L20.06 11.89L20.06 11.89Q20.16 11.89 20.25 11.85L20.25 11.85L20.25 11.85Q20.35 11.81 20.42 11.72L20.42 11.72L20.42 11.72Q20.49 11.63 20.54 11.49L20.54 11.49L20.54 11.49Q20.58 11.35 20.58 11.15L20.58 11.15L21.21 11.09L21.21 11.09Q21.21 11.49 21.09 11.78L21.09 11.78L21.09 11.78Q20.98 12.07 20.79 12.25L20.79 12.25L20.79 12.25Q20.60 12.43 20.35 12.52L20.35 12.52L20.35 12.52Q20.10 12.61 19.82 12.61L19.82 12.61L19.82 12.61Q19.34 12.61 19.04 12.45L19.04 12.45L19.04 12.45Q18.74 12.29 18.58 12.01L18.58 12.01L18.58 12.01Q18.41 11.74 18.35 11.33L18.35 11.33L18.35 11.33Q18.29 10.93 18.29 10.44L18.29 10.44L18.29 6.95L17.17 6.95L17.17 6.41L17.17 6.41Q17.34 6.41 17.55 6.39L17.55 6.39L17.55 6.39Q17.76 6.37 17.95 6.36L17.95 6.36L17.95 6.36Q18.18 6.34 18.40 6.32L18.40 6.32L18.40 6.32Q18.41 6.27 18.42 6.14L18.42 6.14L18.42 6.14Q18.44 6.02 18.45 5.85L18.45 5.85L18.45 5.85Q18.46 5.68 18.48 5.50L18.48 5.50L18.48 5.50Q18.50 5.32 18.52 5.16L18.52 5.16L18.52 5.16Q18.53 5.01 18.54 4.90L18.54 4.90L18.54 4.90Q18.55 4.80 18.55 4.79L18.55 4.79ZM23.03 4.79L23.90 4.61L23.90 6.34L25.54 6.34L25.54 6.95L23.91 6.95L23.91 10.38L23.91 10.38Q23.91 10.73 23.91 11.00L23.91 11.00L23.91 11.00Q23.92 11.28 23.98 11.48L23.98 11.48L23.98 11.48Q24.04 11.68 24.17 11.78L24.17 11.78L24.17 11.78Q24.29 11.89 24.54 11.89L24.54 11.89L24.54 11.89Q24.64 11.89 24.73 11.85L24.73 11.85L24.73 11.85Q24.83 11.81 24.90 11.72L24.90 11.72L24.90 11.72Q24.97 11.63 25.02 11.49L25.02 11.49L25.02 11.49Q25.06 11.35 25.06 11.15L25.06 11.15L25.68 11.09L25.68 11.09Q25.68 11.49 25.57 11.78L25.57 11.78L25.57 11.78Q25.46 12.07 25.27 12.25L25.27 12.25L25.27 12.25Q25.08 12.43 24.83 12.52L24.83 12.52L24.83 12.52Q24.58 12.61 24.29 12.61L24.29 12.61L24.29 12.61Q23.82 12.61 23.52 12.45L23.52 12.45L23.52 12.45Q23.22 12.29 23.05 12.01L23.05 12.01L23.05 12.01Q22.89 11.74 22.83 11.33L22.83 11.33L22.83 11.33Q22.76 10.93 22.76 10.44L22.76 10.44L22.76 6.95L21.64 6.95L21.64 6.41L21.64 6.41Q21.81 6.41 22.03 6.39L22.03 6.39L22.03 6.39Q22.24 6.37 22.43 6.36L22.43 6.36L22.43 6.36Q22.65 6.34 22.88 6.32L22.88 6.32L22.88 6.32Q22.89 6.27 22.90 6.14L22.90 6.14L22.90 6.14Q22.91 6.02 22.93 5.85L22.93 5.85L22.93 5.85Q22.94 5.68 22.96 5.50L22.96 5.50L22.96 5.50Q22.98 5.32 23.00 5.16L23.00 5.16L23.00 5.16Q23.01 5.01 23.02 4.90L23.02 4.90L23.02 4.90Q23.03 4.80 23.03 4.79L23.03 4.79ZM32.15 8.37L32.15 10.93L32.15 10.93Q32.15 11.29 32.17 11.47L32.17 11.47L32.17 11.47Q32.20 11.66 32.27 11.75L32.27 11.75L32.27 11.75Q32.33 11.83 32.46 11.84L32.46 11.84L32.46 11.84Q32.59 11.85 32.79 11.85L32.79 11.85L33.10 11.85L33.10 12.46L33.10 12.46Q32.56 12.46 32.03 12.47L32.03 12.47L32.03 12.47Q31.50 12.48 31.04 12.49L31.04 12.49L31.04 11.55L31.04 11.55Q30.63 12.08 30.07 12.34L30.07 12.34L30.07 12.34Q29.50 12.61 28.75 12.61L28.75 12.61L28.75 12.61Q28.26 12.61 27.86 12.47L27.86 12.47L27.86 12.47Q27.47 12.33 27.19 12.08L27.19 12.08L27.19 12.08Q26.91 11.83 26.75 11.49L26.75 11.49L26.75 11.49Q26.60 11.15 26.60 10.74L26.60 10.74L26.60 10.74Q26.60 10.30 26.78 9.94L26.78 9.94L26.78 9.94Q26.95 9.58 27.30 9.33L27.30 9.33L27.30 9.33Q27.64 9.08 28.13 8.94L28.13 8.94L28.13 8.94Q28.62 8.80 29.24 8.80L29.24 8.80L29.24 8.80Q29.67 8.80 30.11 8.86L30.11 8.86L30.11 8.86Q30.55 8.93 31.00 9.04L31.00 9.04L31.00 8.06L31.00 8.06Q31.00 7.44 30.59 7.11L30.59 7.11L30.59 7.11Q30.17 6.78 29.32 6.78L29.32 6.78L29.32 6.78Q28.60 6.78 28.19 7.06L28.19 7.06L28.19 7.06Q27.79 7.33 27.65 7.92L27.65 7.92L27.02 7.84L27.11 6.64L27.11 6.64Q27.55 6.44 28.13 6.31L28.13 6.31L28.13 6.31Q28.72 6.19 29.45 6.19L29.45 6.19L29.45 6.19Q30.17 6.19 30.69 6.32L30.69 6.32L30.69 6.32Q31.20 6.45 31.52 6.71L31.52 6.71L31.52 6.71Q31.85 6.98 32.00 7.39L32.00 7.39L32.00 7.39Q32.15 7.81 32.15 8.37L32.15 8.37ZM29.50 9.37L29.50 9.37L29.50 9.37Q29.09 9.37 28.77 9.46L28.77 9.46L28.77 9.46Q28.44 9.56 28.21 9.73L28.21 9.73L28.21 9.73Q27.98 9.90 27.86 10.14L27.86 10.14L27.86 10.14Q27.73 10.39 27.73 10.71L27.73 10.71L27.73 10.71Q27.73 10.99 27.83 11.20L27.83 11.20L27.83 11.20Q27.93 11.42 28.11 11.57L28.11 11.57L28.11 11.57Q28.29 11.72 28.55 11.81L28.55 11.81L28.55 11.81Q28.80 11.89 29.10 11.89L29.10 11.89L29.10 11.89Q29.43 11.89 29.77 11.79L29.77 11.79L29.77 11.79Q30.11 11.68 30.38 11.49L30.38 11.49L30.38 11.49Q30.65 11.29 30.83 11.00L30.83 11.00L30.83 11.00Q31.00 10.70 31.00 10.28L31.00 10.28L31.00 9.61L31.00 9.61Q30.59 9.50 30.22 9.43L30.22 9.43L30.22 9.43Q29.85 9.37 29.50 9.37Z"></path></g><defs data-v-fde0c5aa=""><!----></defs><g data-v-fde0c5aa="" id="2adcc460-dff0-4fd2-814f-88051a0bfb47" stroke="none" fill="#E87967" transform="matrix(0.6512911915779114,0,0,0.6512911915779114,39.64178986246858,117.44387402491796)"><path d="M58.6 44.8c-.6-1.1-2-1.5-3.1-.9l-13.4 6.6c-1.7-.7-3.6-.6-5.2.4-2.8 1.7-3.7 5.3-2.1 8.1 1.7 2.8 5.3 3.7 8.1 2.1 1.7-1 2.6-2.6 2.8-4.4L57.9 48c1-.8 1.3-2.1.7-3.2zM42.4 56.5c-.4 1.4-1.8 2.2-3.2 1.9-1.4-.4-2.2-1.8-1.9-3.2.4-1.4 1.8-2.2 3.2-1.9 1.4.4 2.2 1.8 1.9 3.2zm5-16.3c-.4-.7-.5-1.6 0-2.4.7-1.2 2.1-1.6 3.3-.9 1.2.7 1.6 2.1.9 3.3-.7 1.2-2.1 1.6-3.3.9-.4-.2-.7-.5-.9-.9zm-9.7-2.5c-.2-.4-.3-.8-.3-1.2 0-1.3 1.1-2.4 2.4-2.4 1.3 0 2.4 1.1 2.4 2.4 0 1.3-1.1 2.4-2.4 2.4-.9 0-1.7-.5-2.1-1.2zm2.4 35.2c1.3 0 2.4 1.1 2.4 2.4 0 1.3-1.1 2.4-2.4 2.4-.9 0-1.7-.5-2.1-1.2-.2-.3-.3-.8-.3-1.2 0-1.3 1-2.4 2.4-2.4zm11.7-1.5c.7 1.1.3 2.6-.9 3.3-1.1.7-2.6.3-3.3-.8-.7-1.1-.3-2.6.9-3.3 1.2-.7 2.7-.4 3.3.8zm2.9-4.7c-.4-.7-.5-1.6 0-2.4.7-1.2 2.1-1.6 3.3-.9 1.2.7 1.6 2.1.9 3.3-.7 1.2-2.1 1.6-3.3.9-.4-.3-.7-.6-.9-.9zm-34.3-13c1.3 0 2.4 1.1 2.4 2.4 0 1.3-1.1 2.4-2.4 2.4-.9 0-1.7-.5-2.1-1.2-.2-.3-.3-.8-.3-1.2 0-1.3 1.1-2.4 2.4-2.4zm.7 13.3c-.7-1.2-.3-2.6.9-3.3 1.1-.7 2.6-.3 3.3.8.7 1.1.3 2.6-.8 3.3-1.2.7-2.7.4-3.4-.8zm38.2-8.9c-.9 0-1.7-.5-2.1-1.2-.2-.4-.3-.8-.3-1.2 0-1.3 1.1-2.4 2.4-2.4 1.3 0 2.4 1.1 2.4 2.4 0 1.3-1 2.4-2.4 2.4zM20.9 47.6c-.4-.7-.5-1.6 0-2.4.7-1.2 2.1-1.6 3.3-.9 1.2.7 1.6 2.1.9 3.3-.7 1.2-2.1 1.6-3.3.9-.4-.2-.7-.5-.9-.9zm7-7.2c-.7-1.2-.3-2.6.8-3.3 1.2-.7 2.6-.3 3.3.9.7 1.1.3 2.6-.8 3.3-1.1.6-2.6.3-3.3-.9zm.4 33.6c-.4-.7-.5-1.6 0-2.4.7-1.2 2.1-1.6 3.3-.9 1.2.7 1.6 2.1.9 3.3-.7 1.2-2.1 1.6-3.3.9-.4-.2-.7-.5-.9-.9zM2.2 29.2C0 27 0 23.3 2.2 21.1L5 18.2c2.2-2.2 5.9-2.2 8.1 0l2.1 2.1-2.4 2.4 2.7 2.7c1.4-1.1 3-2.2 4.6-3.2 4.9-2.9 10.2-4.6 15.6-5.1v-3.4H34c-1 0-1.9-.8-1.9-1.9V6.9c0-1 .8-1.9 1.9-1.9h11.7c1 0 1.9.8 1.9 1.9v4.9c0 1-.8 1.9-1.9 1.9h-1.4v3.4c7.2.8 14.1 3.7 19.9 8.3l2.7-2.7-2.4-2.4 2.1-2.1c2.2-2.2 5.9-2.2 8.1 0l2.9 2.9c2.2 2.2 2.2 5.9 0 8.1l-2.1 2.1-2.5-2.4-2.7 2.7c1.1 1.4 2.2 3 3.2 4.6 2.4 4 3.9 8.3 4.7 12.6H78c-2.9 0-5.3 2.4-5.3 5.3-.3.1-.6.3-1 .4-.6-.6-1.2-1-2-1.2-.4-4.3-1.7-8.5-4-12.4C57.3 26.4 38.9 21.6 24.6 30s-19 26.8-10.7 41.1C22.3 85.4 40.8 90.2 55 81.8c1.4-.8 2.8-1.8 4-2.8.7.3 1.5.5 2.3.5.1.3.3.6.4 1-1 1-1.5 2.3-1.5 3.7 0 1.4.6 2.8 1.6 3.8l.2.2c-.7.5-1.5 1-2.2 1.4C41 100.5 17 94.3 6.1 75.7-2.3 61.4-.5 43.8 9.3 31.5l-2.7-2.7-2.4 2.4-2-2zm59.1 46.3h3c.4 2.1 1.2 4 2.4 5.7l-2.1 2.1c-.5.5-.5 1.3 0 1.8l2.5 2.5c.5.5 1.3.5 1.8 0l2.1-2.1c1.7 1.1 3.6 2 5.7 2.4v3c0 .7.6 1.3 1.3 1.3h3.6c.7 0 1.3-.6 1.3-1.3v-3c2.1-.4 4-1.2 5.7-2.4l2.1 2.1c.5.5 1.3.5 1.8 0l2.5-2.5c.5-.5.5-1.3 0-1.8l-2.1-2.1c1.1-1.7 2-3.6 2.4-5.7h3c.7 0 1.3-.6 1.3-1.3v-3.6c0-.7-.6-1.3-1.3-1.3h-3c-.4-2.1-1.2-4-2.4-5.7l2.1-2.1c.5-.5.5-1.3 0-1.8l-2.5-2.5c-.5-.5-1.3-.5-1.8 0l-2.1 2.1c-1.7-1.1-3.6-2-5.7-2.4v-3c0-.7-.6-1.3-1.3-1.3H78c-.7 0-1.3.6-1.3 1.3v3c-2.1.4-4 1.2-5.7 2.4l-2.1-2.1c-.5-.5-1.3-.5-1.8 0l-2.5 2.5c-.5.5-.5 1.3 0 1.8l2.1 2.1c-1.1 1.7-2 3.6-2.4 5.7h-3c-.7 0-1.3.6-1.3 1.3v3.6c0 .8.6 1.3 1.3 1.3zm14.3-5.1l2.5 2.5 5.9-5.8 2.5 2.6-5.9 5.8-2.6 2.4-2.5-2.6-2.5-2.5 2.6-2.4z"></path></g><!----></svg>